<svg width="500" height="500" viewBox="0 0 500 500" fill="none" xmlns="http://www.w3.org/2000/svg">
<circle cx="250.5" cy="250.5" r="196.5" fill="white"/>
<g clip-path="url(#clip0_1_11)">
<path d="M304.08 163.481L147.123 207.626C140.938 209.378 135.443 212.994 131.388 217.983C127.334 222.972 124.916 229.09 124.466 235.503C124.015 241.916 125.554 248.312 128.871 253.819C132.188 259.325 137.123 263.675 143.003 266.274L199.129 290.848C200.459 291.467 201.651 292.345 202.638 293.43C203.624 294.515 204.385 295.786 204.875 297.168L224.004 355.375C225.637 360.32 228.48 364.778 232.275 368.345C236.069 371.911 240.695 374.473 245.731 375.797C250.767 377.121 256.055 377.166 261.113 375.927C266.171 374.688 270.839 372.205 274.693 368.703C278.269 365.386 281.058 361.311 282.856 356.777L341.715 204.725C343.792 199.32 344.326 193.444 343.259 187.752C342.191 182.061 339.563 176.778 335.668 172.494C331.773 168.209 326.764 165.091 321.2 163.487C315.635 161.884 309.735 161.857 304.157 163.411L304.08 163.481ZM322.235 197.234L263.376 349.286C262.578 351.255 261.197 352.932 259.418 354.093C257.639 355.255 255.548 355.844 253.424 355.783C251.301 355.722 249.247 355.014 247.538 353.752C245.829 352.491 244.546 350.737 243.862 348.726L224.656 290.589C224.392 289.819 224.083 289.066 223.731 288.332L276.837 240.054C278.881 238.196 280.103 235.601 280.235 232.842C280.366 230.082 279.396 227.384 277.538 225.339C275.679 223.295 273.085 222.073 270.325 221.942C267.566 221.81 264.867 222.78 262.823 224.639L209.717 272.917C209.02 272.497 208.3 272.118 207.559 271.782L151.51 247.138C149.573 246.266 147.948 244.823 146.855 243.001C145.762 241.18 145.251 239.068 145.392 236.948C145.534 234.829 146.319 232.803 147.644 231.142C148.969 229.482 150.77 228.266 152.806 227.659L309.763 183.515C311.613 183.014 313.566 183.033 315.406 183.571C317.247 184.109 318.903 185.144 320.192 186.562C321.482 187.981 322.355 189.728 322.716 191.611C323.076 193.494 322.91 195.44 322.235 197.234Z" fill="#0048FF"/>
</g>
<defs>
<clipPath id="clip0_1_11">
<rect width="250" height="250" fill="white" transform="translate(82 234.168) rotate(-42.2737)"/>
</clipPath>
</defs>
</svg>
